<svg width="12" height="12" viewBox="0 0 12 12" fill="none" xmlns="http://www.w3.org/2000/svg">
<g clip-path="url(#clip0_102_5263)">
<path d="M5.99805 11.2476C4.9597 11.2476 3.94466 10.9397 3.08131 10.3628C2.21795 9.78592 1.54504 8.96598 1.14768 8.00667C0.750322 7.04736 0.646354 5.99176 0.848927 4.97336C1.0515 3.95496 1.55151 3.0195 2.28574 2.28527C3.01996 1.55104 3.95543 1.05103 4.97383 0.848457C5.99223 0.645885 7.04783 0.749852 8.00714 1.14721C8.96645 1.54457 9.78639 2.21748 10.3633 3.08084C10.9401 3.94419 11.248 4.95923 11.248 5.99758C11.248 7.38997 10.6949 8.72532 9.71036 9.70989C8.72579 10.6945 7.39044 11.2476 5.99805 11.2476ZM5.99805 1.49758C5.10803 1.49758 4.238 1.7615 3.49798 2.25597C2.75796 2.75043 2.18119 3.45324 1.84059 4.27551C1.5 5.09777 1.41088 6.00257 1.58452 6.87549C1.75815 7.7484 2.18673 8.55022 2.81607 9.17956C3.44541 9.8089 4.24723 10.2375 5.12014 10.4111C5.99306 10.5847 6.89786 10.4956 7.72013 10.155C8.54239 9.81444 9.2452 9.23767 9.73966 8.49765C10.2341 7.75763 10.498 6.8876 10.498 5.99758C10.498 4.80411 10.0239 3.65951 9.18003 2.8156C8.33612 1.97169 7.19152 1.49758 5.99805 1.49758Z" fill="#EB5757"/>
<path d="M7.72125 8.2485L5.625 6.15225V2.6235H6.375V5.841L8.25 7.71975L7.72125 8.2485Z" fill="#EB5757"/>
</g>
<defs>
<clipPath id="clip0_102_5263">
<rect width="12" height="12" fill="white" transform="translate(-0.00195312 9.91821e-05)"/>
</clipPath>
</defs>
</svg>
