<svg width="12" height="12" viewBox="0 0 12 12" fill="none" xmlns="http://www.w3.org/2000/svg">
<g clip-path="url(#clip0_102_5258)">
<path d="M9.63555 3.48707L7.01055 0.862073C6.93555 0.787073 6.86055 0.749573 6.74805 0.749573H2.99805C2.58555 0.749573 2.24805 1.08707 2.24805 1.49957V10.4996C2.24805 10.9121 2.58555 11.2496 2.99805 11.2496H8.99805C9.41055 11.2496 9.74805 10.9121 9.74805 10.4996V3.74957C9.74805 3.63707 9.71055 3.56207 9.63555 3.48707ZM6.74805 1.64957L8.84805 3.74957H6.74805V1.64957ZM8.99805 10.4996H2.99805V1.49957H5.99805V3.74957C5.99805 4.16207 6.33555 4.49957 6.74805 4.49957H8.99805V10.4996Z" fill="#EB5757"/>
<path d="M3.74805 8.25077H8.24805V9.00077H3.74805V8.25077ZM3.74805 6.00077H8.24805V6.75077H3.74805V6.00077Z" fill="#EB5757"/>
</g>
<defs>
<clipPath id="clip0_102_5258">
<rect width="12" height="12" fill="white" transform="translate(-0.00195312 9.91821e-05)"/>
</clipPath>
</defs>
</svg>
