<svg width="12" height="12" viewBox="0 0 12 12" fill="none" xmlns="http://www.w3.org/2000/svg">
<g clip-path="url(#clip0_102_5268)">
<path d="M6.00126 3.87398C5.60343 3.87398 5.2219 4.03201 4.9406 4.31332C4.65929 4.59462 4.50126 4.97615 4.50126 5.37398C4.50126 5.7718 4.65929 6.15333 4.9406 6.43464C5.2219 6.71594 5.60343 6.87398 6.00126 6.87398C6.39908 6.87398 6.78061 6.71594 7.06192 6.43464C7.34322 6.15333 7.50126 5.7718 7.50126 5.37398C7.50126 4.97615 7.34322 4.59462 7.06192 4.31332C6.78061 4.03201 6.39908 3.87398 6.00126 3.87398ZM5.12626 5.37398C5.12626 5.14191 5.21844 4.91935 5.38254 4.75526C5.54663 4.59117 5.76919 4.49898 6.00126 4.49898C6.23332 4.49898 6.45588 4.59117 6.61997 4.75526C6.78407 4.91935 6.87626 5.14191 6.87626 5.37398C6.87626 5.60604 6.78407 5.8286 6.61997 5.9927C6.45588 6.15679 6.23332 6.24898 6.00126 6.24898C5.76919 6.24898 5.54663 6.15679 5.38254 5.9927C5.21844 5.8286 5.12626 5.60604 5.12626 5.37398ZM9.25001 7.99898L6.72801 10.6765C6.63451 10.7758 6.5217 10.8549 6.39651 10.9089C6.27131 10.963 6.13638 10.9909 6.00001 10.9909C5.86363 10.9909 5.7287 10.963 5.60351 10.9089C5.47831 10.8549 5.3655 10.7758 5.27201 10.6765L2.75001 7.99898H2.75951L2.75526 7.99398L2.75001 7.98773C2.10268 7.22215 1.74829 6.25155 1.75001 5.24898C1.75001 2.90173 3.65276 0.998978 6.00001 0.998978C8.34726 0.998978 10.25 2.90173 10.25 5.24898C10.2517 6.25155 9.89733 7.22215 9.25001 7.98773L9.24476 7.99398L9.24051 7.99898H9.25001ZM8.76426 7.59423C9.32128 6.93991 9.6265 6.10828 9.62501 5.24898C9.62501 3.24698 8.00201 1.62398 6.00001 1.62398C3.99801 1.62398 2.37501 3.24698 2.37501 5.24898C2.37344 6.10829 2.67867 6.93995 3.23576 7.59423L3.31276 7.68498L5.72701 10.2477C5.76207 10.285 5.80437 10.3146 5.85132 10.3349C5.89827 10.3552 5.94887 10.3656 6.00001 10.3656C6.05115 10.3656 6.10175 10.3552 6.14869 10.3349C6.19564 10.3146 6.23795 10.285 6.27301 10.2477L8.68726 7.68498L8.76426 7.59423Z" fill="#EB5757"/>
</g>
<defs>
<clipPath id="clip0_102_5268">
<rect width="12" height="12" fill="white" transform="translate(-0.00195312 9.91821e-05)"/>
</clipPath>
</defs>
</svg>
