<svg width="18" height="19" viewBox="0 0 18 19" fill="none" xmlns="http://www.w3.org/2000/svg">
<path d="M17.3173 15.451C16.8752 14.4037 16.2336 13.4525 15.4283 12.6502C14.6254 11.8456 13.6743 11.2041 12.6275 10.7612C12.6181 10.7565 12.6088 10.7541 12.5994 10.7494C14.0595 9.69477 15.0087 7.97681 15.0087 6.03855C15.0087 2.82763 12.4072 0.226089 9.19628 0.226089C5.98537 0.226089 3.38382 2.82763 3.38382 6.03855C3.38382 7.97681 4.33304 9.69477 5.79318 10.7518C5.78381 10.7565 5.77443 10.7588 5.76506 10.7635C4.71507 11.2065 3.77288 11.8416 2.9643 12.6526C2.15972 13.4554 1.51822 14.4065 1.07525 15.4533C0.64007 16.4781 0.405368 17.5768 0.383848 18.69C0.383222 18.715 0.38761 18.7399 0.396752 18.7632C0.405894 18.7865 0.419606 18.8077 0.437079 18.8256C0.454553 18.8435 0.475435 18.8578 0.498494 18.8675C0.521553 18.8772 0.546324 18.8822 0.571346 18.8822H1.97759C2.08071 18.8822 2.16274 18.8002 2.16508 18.6994C2.21196 16.89 2.93852 15.1955 4.22288 13.9111C5.55178 12.5822 7.31661 11.851 9.19628 11.851C11.076 11.851 12.8408 12.5822 14.1697 13.9111C15.454 15.1955 16.1806 16.89 16.2275 18.6994C16.2298 18.8025 16.3119 18.8822 16.415 18.8822H17.8212C17.8462 18.8822 17.871 18.8772 17.8941 18.8675C17.9171 18.8578 17.938 18.8435 17.9555 18.8256C17.973 18.8077 17.9867 18.7865 17.9958 18.7632C18.005 18.7399 18.0093 18.715 18.0087 18.69C17.9853 17.5697 17.7532 16.4799 17.3173 15.451ZM9.19628 10.0698C8.12051 10.0698 7.10802 9.65024 6.3463 8.88852C5.58459 8.12681 5.16506 7.11432 5.16506 6.03855C5.16506 4.96277 5.58459 3.95028 6.3463 3.18857C7.10802 2.42685 8.12051 2.00733 9.19628 2.00733C10.2721 2.00733 11.2845 2.42685 12.0463 3.18857C12.808 3.95028 13.2275 4.96277 13.2275 6.03855C13.2275 7.11432 12.808 8.12681 12.0463 8.88852C11.2845 9.65024 10.2721 10.0698 9.19628 10.0698Z" fill="#2F80ED"/>
</svg>
