<svg width="12" height="12" viewBox="0 0 12 12" fill="none" xmlns="http://www.w3.org/2000/svg">
<path d="M10.0586 8.9488C9.83756 8.42518 9.51676 7.94955 9.11409 7.54841C8.71265 7.14612 8.2371 6.82537 7.7137 6.60388C7.70901 6.60154 7.70433 6.60036 7.69964 6.59802C8.42972 6.07068 8.90433 5.21169 8.90433 4.24255C8.90433 2.63708 7.60355 1.3363 5.99808 1.3363C4.39261 1.3363 3.09183 2.63708 3.09183 4.24255C3.09183 5.21169 3.56644 6.07068 4.29651 6.59919C4.29183 6.60154 4.28714 6.60271 4.28245 6.60505C3.75745 6.82654 3.28636 7.14411 2.88206 7.54958C2.47977 7.95103 2.15902 8.42658 1.93753 8.94997C1.71994 9.46238 1.60259 10.0117 1.59183 10.5683C1.59151 10.5808 1.59371 10.5933 1.59828 10.6049C1.60285 10.6166 1.60971 10.6272 1.61844 10.6361C1.62718 10.6451 1.63762 10.6522 1.64915 10.6571C1.66068 10.6619 1.67307 10.6644 1.68558 10.6644H2.3887C2.44026 10.6644 2.48128 10.6234 2.48245 10.573C2.50589 9.66833 2.86917 8.82107 3.51136 8.17888C4.17581 7.51443 5.05823 7.1488 5.99808 7.1488C6.93792 7.1488 7.82034 7.51443 8.4848 8.17888C9.12698 8.82107 9.49026 9.66833 9.5137 10.573C9.51487 10.6246 9.55589 10.6644 9.60745 10.6644H10.3106C10.3231 10.6644 10.3355 10.6619 10.347 10.6571C10.3585 10.6522 10.369 10.6451 10.3777 10.6361C10.3864 10.6272 10.3933 10.6166 10.3979 10.6049C10.4024 10.5933 10.4046 10.5808 10.4043 10.5683C10.3926 10.0082 10.2766 9.46325 10.0586 8.9488ZM5.99808 6.25818C5.46019 6.25818 4.95394 6.04841 4.57308 5.66755C4.19222 5.28669 3.98245 4.78044 3.98245 4.24255C3.98245 3.70466 4.19222 3.19841 4.57308 2.81755C4.95394 2.43669 5.46019 2.22693 5.99808 2.22693C6.53597 2.22693 7.04222 2.43669 7.42308 2.81755C7.80394 3.19841 8.0137 3.70466 8.0137 4.24255C8.0137 4.78044 7.80394 5.28669 7.42308 5.66755C7.04222 6.04841 6.53597 6.25818 5.99808 6.25818Z" fill="#EB5757"/>
</svg>
